# xmcd
#
# Track frame offsets:
#   150
#   15411
#   30119
#   45396
#   58667
#   71201
#   82293
#   101187
#   118055
#   131722
#   149263
#   164751
#   182273
#   200242
#   219322
#   238188
#   252231
#   268488
#   284984
#   305706
#
# Disc length: 4346 seconds
#
# Revision: 0
# Processed by: cddbd v1.5.1PL0 Copyright (c) Steve Scherf et al.
# Submitted via: Media_Universe 3.0
#
DISCID=4110f814
DTITLE=David Lee Murphy - Out With A Bang and Gettin Out The Good Stuff
DYEAR=1900
DGENRE=Country
TTITLE0=Cant Turn It Off
TTITLE1=Party Crowd
TTITLE2=Mama'n' Them
TTITLE3=High Weeds And Rust
TTITLE4=Fish Aint Bitin
TTITLE5=Out With A Bang
TTITLE6=Greatest Show On Earth
TTITLE7=Dust On The Bottle
TTITLE8=Just Once
TTITLE9=Why Cant People Just Get Along
TTITLE10=Every Time I Get Around You
TTITLE11=The Road You Leave Behind
TTITLE12=She's Really Something To See
TTITLE13=Genuine Rednecks
TTITLE14=100 Years Too Late
TTITLE15=Born That Way
TTITLE16=Breakfast In Birmingham
TTITLE17=Gettin Out The Good Stuff
TTITLE18=Ive Been A Rebel(And It Dont Pay)
TTITLE19=Pirates Cove
EXTD=
EXTT0=
EXTT1=
EXTT2=
EXTT3=
EXTT4=
EXTT5=
EXTT6=
EXTT7=
EXTT8=
EXTT9=
EXTT10=
EXTT11=
EXTT12=
EXTT13=
EXTT14=
EXTT15=
EXTT16=
EXTT17=
EXTT18=
EXTT19=
PLAYORDER=
